# xmcd
#
# Track frame offsets: 
#        150
#        5008
#        17158
#        34470
#        52710
#        71588
#        91470
#        108535
#        128388
#        137298
#        161153
#        179038
#        193220
#        207228
#        238058
#
# Disc length: 3451 seconds
#
# Revision: 6
# Processed by: cddbd v1.5.2PL0 Copyright (c) Steve Scherf et al.
# Submitted via: ExactAudioCopy v1.0b1
#
DISCID=d20d790f
DTITLE=OutKast - ATLiens
DYEAR=1996
DGENRE=Hip-Hop
TTITLE0=You May Die (Intro)
TTITLE1=Two Dope Boyz (In A Cadillac)
TTITLE2=ATLiens
TTITLE3=Wheelz of Steel
TTITLE4=Jazzy Belle
TTITLE5=Elevators (Me and You)
TTITLE6=Ova Da Wudz
TTITLE7=Babylon
TTITLE8=Wailin'
TTITLE9=Mainstream (feat. Khujo and T-Mo)
TTITLE10=Decatur Psalm (feat. Big Gipp and Cool Breeze)
TTITLE11=Millennium
TTITLE12=E.T. (Extraterrestrial)
TTITLE13=13th Floor - Growing Old
TTITLE14=Elevators (Me and You) (ONP 86 Mix)
EXTD=
EXTT0=
EXTT1=
EXTT2=
EXTT3=
EXTT4=
EXTT5=
EXTT6=
EXTT7=
EXTT8=
EXTT9=
EXTT10=
EXTT11=
EXTT12=
EXTT13=
EXTT14=
PLAYORDER=
